<svg xmlns="http://www.w3.org/2000/svg" width="87.047" height="63" viewBox="0 0 87.047 63">
  <g id="Sterilized" transform="translate(-151.001 -2385)">
    <path id="Path_39638" data-name="Path 39638" d="M62.447,240.137a4.421,4.421,0,0,0-1.329,8.637v5.357h-.207a1.329,1.329,0,1,0,0,2.658h3.072a1.329,1.329,0,1,0,0-2.658h-.207v-5.357a4.421,4.421,0,0,0-1.329-8.637Zm0,6.184a1.763,1.763,0,1,1,1.763-1.763A1.765,1.765,0,0,1,62.447,246.321Z" transform="translate(103.258 2175.965)" fill="#034ea2"/>
    <path id="Path_39639" data-name="Path 39639" d="M292.354,271.606a6.507,6.507,0,1,0,6.507-6.506A6.514,6.514,0,0,0,292.354,271.606Zm10.355,0A3.848,3.848,0,1,1,297.531,268v3.611a1.329,1.329,0,1,0,2.658,0V268A3.855,3.855,0,0,1,302.709,271.606Z" transform="translate(-92.002 2155.098)" fill="#034ea2"/>
    <path id="Path_39640" data-name="Path 39640" d="M390.478,265.1a6.506,6.506,0,1,0,6.507,6.506A6.514,6.514,0,0,0,390.478,265.1Zm0,10.354a3.848,3.848,0,1,1,1.613-7.341l-2.553,2.553a1.329,1.329,0,0,0,1.88,1.88l2.553-2.553a3.846,3.846,0,0,1-3.493,5.461Z" transform="translate(-168.614 2155.098)" fill="#034ea2"/>
    <path id="Path_39641" data-name="Path 39641" d="M180.867,271.186h-1.038a1.329,1.329,0,1,0,0,2.658h1.038a1.329,1.329,0,1,0,0-2.658Z" transform="translate(2.793 2150.983)" fill="#034ea2"/>
    <path id="Path_39642" data-name="Path 39642" d="M210.14,271.186H209.1a1.329,1.329,0,1,0,0,2.658h1.038a1.329,1.329,0,1,0,0-2.658Z" transform="translate(-21.512 2150.983)" fill="#034ea2"/>
    <path id="Path_39643" data-name="Path 39643" d="M239.412,271.186h-1.038a1.329,1.329,0,1,0,0,2.658h1.038a1.329,1.329,0,1,0,0-2.658Z" transform="translate(-45.816 2150.983)" fill="#034ea2"/>
    <path id="Path_39644" data-name="Path 39644" d="M180.867,298.88h-1.038a1.329,1.329,0,1,0,0,2.658h1.038a1.329,1.329,0,0,0,0-2.658Z" transform="translate(2.793 2127.5)" fill="#034ea2"/>
    <path id="Path_39645" data-name="Path 39645" d="M210.14,298.88H209.1a1.329,1.329,0,1,0,0,2.658h1.038a1.329,1.329,0,0,0,0-2.658Z" transform="translate(-21.512 2127.5)" fill="#034ea2"/>
    <path id="Path_39646" data-name="Path 39646" d="M239.412,298.88h-1.038a1.329,1.329,0,0,0,0,2.658h1.038a1.329,1.329,0,1,0,0-2.658Z" transform="translate(-45.816 2127.5)" fill="#034ea2"/>
    <path id="Path_39647" data-name="Path 39647" d="M180.867,326.574h-1.038a1.329,1.329,0,1,0,0,2.658h1.038a1.329,1.329,0,1,0,0-2.658Z" transform="translate(2.793 2104.017)" fill="#034ea2"/>
    <path id="Path_39648" data-name="Path 39648" d="M210.14,326.574H209.1a1.329,1.329,0,1,0,0,2.658h1.038a1.329,1.329,0,1,0,0-2.658Z" transform="translate(-21.512 2104.017)" fill="#034ea2"/>
    <path id="Path_39649" data-name="Path 39649" d="M239.412,326.574h-1.038a1.329,1.329,0,1,0,0,2.658h1.038a1.329,1.329,0,1,0,0-2.658Z" transform="translate(-45.816 2104.017)" fill="#034ea2"/>
    <path id="Path_39650" data-name="Path 39650" d="M65.807,108.274H59.772a1.329,1.329,0,1,0,0,2.658h6.035a1.329,1.329,0,0,0,0-2.658Z" transform="translate(102.915 2276.726)" fill="#034ea2"/>
    <path id="Path_39651" data-name="Path 39651" d="M65.807,135.619H59.772a1.329,1.329,0,0,0,0,2.658h6.035a1.329,1.329,0,0,0,0-2.658Z" transform="translate(102.915 2263.938)" fill="#034ea2"/>
    <path id="Path_39652" data-name="Path 39652" d="M65.807,162.963H59.772a1.329,1.329,0,1,0,0,2.658h6.035a1.329,1.329,0,1,0,0-2.658Z" transform="translate(102.915 2240.75)" fill="#034ea2"/>
    <path id="Path_39653" data-name="Path 39653" d="M83.207,114.769H82.43V103.551a1.286,1.286,0,0,0-2.55,0v11.217H47.622V101.086a1.786,1.786,0,0,0-1.887-1.658H28.459a1.786,1.786,0,0,0-1.887,1.658v13.683H23.6V95.709H79.88v3.362a1.286,1.286,0,0,0,2.55,0v-3.6a2.159,2.159,0,0,0-2.281-2h-.525a4.764,4.764,0,0,0-4.888-3.779H72.345V82.378a1.205,1.205,0,0,0-1.275-1.121H56.977A1.205,1.205,0,0,0,55.7,82.378v7.311H52.321V82.378a1.205,1.205,0,0,0-1.275-1.121H36.954a1.205,1.205,0,0,0-1.275,1.121v7.311H32.3V82.378a1.205,1.205,0,0,0-1.275-1.121H23.6V75.713a2.48,2.48,0,0,0-2.62-2.3H15.182a1.13,1.13,0,1,0,0,2.241h5.794a.066.066,0,0,1,.07.061V93.468H7.167V75.713a.066.066,0,0,1,.07-.061h2.847a1.13,1.13,0,1,0,0-2.241H7.237a2.48,2.48,0,0,0-2.62,2.3v39.056H3.84A3.635,3.635,0,0,0,0,118.144v8.709a1.205,1.205,0,0,0,1.275,1.121H44.831a1.13,1.13,0,1,0,0-2.241H2.55v-7.588a1.221,1.221,0,0,1,1.29-1.134H83.207a1.221,1.221,0,0,1,1.29,1.134v7.588H49.93a1.13,1.13,0,1,0,0,2.241H85.772a1.205,1.205,0,0,0,1.275-1.121v-8.709A3.634,3.634,0,0,0,83.207,114.769Zm-6.176-21.3H23.6V91.93H74.736A2.356,2.356,0,0,1,77.031,93.468ZM58.252,83.5h4.5v.924a1.286,1.286,0,0,0,2.55,0V83.5h4.5v6.19H58.252V83.5Zm-20.024,0h4.5v.924a1.286,1.286,0,0,0,2.55,0V83.5h4.5v6.19H38.229V83.5Zm-8.481,0v6.19H23.6V83.5ZM7.167,95.709H21.046v19.06H7.167Zm21.956,19.06v-13.1H45.072v13.1Z" transform="translate(151 2320.027)" fill="#034ea2"/>
  </g>
</svg>
