<svg id="Preservative_" data-name="Preservative " xmlns="http://www.w3.org/2000/svg" width="64" height="64" viewBox="0 0 64 64">
  <path id="Path_39774" data-name="Path 39774" d="M32,64A32,32,0,1,0,0,32,31.791,31.791,0,0,0,32,64ZM32,1.875A30.125,30.125,0,1,1,1.875,32,30.159,30.159,0,0,1,32,1.875Z" transform="translate(0 0)" fill="#034ea2"/>
  <path id="Path_39775" data-name="Path 39775" d="M142.805,71.9h0l4.23,4.23a2.053,2.053,0,0,0,3.057-.17,28.213,28.213,0,0,0-39.633-39.633,2.053,2.053,0,0,0-.171,3.057ZM130.133,56.574a4.974,4.974,0,0,0,1.669-1.306,5.018,5.018,0,0,0,1.886,1.4c.96,3.359,2.462,5.239,4.084,7.541Zm-18.506-18.78a26.338,26.338,0,0,1,37,37,.177.177,0,0,1-.263.01L144.3,70.739a6.591,6.591,0,0,0-.894-1.79c-7.1-10.078-8.537-10.9-8.537-19.065a.937.937,0,1,0-1.875,0,29.017,29.017,0,0,0,.139,4.043,1.683,1.683,0,0,0-2.676.024,3.1,3.1,0,0,1-1.784,1.161L122.963,49.4V43.143a1.647,1.647,0,0,0-1.645-1.645,1.685,1.685,0,1,1,0-3.369h13.318a1.685,1.685,0,0,1,0,3.369,1.647,1.647,0,0,0-1.645,1.645v2.366a.937.937,0,1,0,1.875,0V43.366a3.56,3.56,0,0,0-.23-7.112H121.318a3.56,3.56,0,0,0-.23,7.112v4.163l-9.472-9.472A.177.177,0,0,1,111.626,37.794Z" transform="translate(-95.977 -26.441)" fill="#034ea2"/>
  <path id="Path_39776" data-name="Path 39776" d="M58.456,156.2a28.078,28.078,0,0,0,17.5-6.107,2.053,2.053,0,0,0,.17-3.057L39.383,110.29a2.054,2.054,0,0,0-3.057.171A28.224,28.224,0,0,0,58.456,156.2Zm-.9-25.081,2.868,2.868a2.221,2.221,0,1,1-2.868-2.868ZM37.794,111.626a.177.177,0,0,1,.263-.011l13.111,13.111a16.108,16.108,0,0,1-2.58,5.849l-5.574,7.909a6.515,6.515,0,0,0,5.323,10.263h7.916a.937.937,0,1,0,0-1.875H48.338a4.633,4.633,0,0,1-3.79-7.308l5.574-7.909a17.967,17.967,0,0,0,2.589-5.386l3.456,3.456a4.1,4.1,0,1,0,5.654,5.654l10.071,10.071a4.556,4.556,0,0,1-3.348,1.422H60.629a.938.938,0,0,0,0,1.875h7.916a6.4,6.4,0,0,0,4.673-1.971l1.585,1.585a.177.177,0,0,1-.011.263,26.338,26.338,0,0,1-37-37Z" transform="translate(-26.442 -95.977)" fill="#034ea2"/>
  <path id="Path_39777" data-name="Path 39777" d="M184.813,333.789a3.146,3.146,0,1,0,3.146,3.146A3.149,3.149,0,0,0,184.813,333.789Zm0,4.417a1.271,1.271,0,1,1,1.271-1.271A1.272,1.272,0,0,1,184.813,338.206Z" transform="translate(-158.959 -292.066)" fill="#034ea2"/>
  <path id="Path_39778" data-name="Path 39778" d="M272.493,346.481h.146a.938.938,0,0,0,0-1.875h-.146a.938.938,0,0,0,0,1.875Z" transform="translate(-237.612 -301.53)" fill="#034ea2"/>
</svg>
