<svg id="High_natural" data-name="High natural" xmlns="http://www.w3.org/2000/svg" width="59.631" height="59.633" viewBox="0 0 59.631 59.633">
  <path id="Path_39819" data-name="Path 39819" d="M60.631,25.746a15.31,15.31,0,0,0-2.782-8.824L47.544,2.2a2.809,2.809,0,0,0-4.6,0l-5.894,8.42H20.236a2.885,2.885,0,0,0,0,5.771v2.029C9.38,19.174,1,26.164,1,34.663,1,40.62,5.156,46.056,11.865,48.943A18.193,18.193,0,0,0,32.259,60.31a7.19,7.19,0,0,0,2.152.323,8.637,8.637,0,0,0,1.223-.089,11.258,11.258,0,0,0,6.249-3.272c.036-.036.067-.078.1-.114.149.168.3.337.462.5a9.608,9.608,0,0,0,6.616,2.962A5.778,5.778,0,0,0,53.232,59c2.6-2.6,2-7.44-1.347-10.786a10.988,10.988,0,0,0-1.26-1.08,10.583,10.583,0,0,0,10.006-10.55v-.962h-3.4a15.431,15.431,0,0,0,3.4-9.618ZM19.274,13.5a.963.963,0,0,1,.962-.962H37.548a.962.962,0,1,1,0,1.924H20.236A.963.963,0,0,1,19.274,13.5Zm16.35,2.885v1.924H27.93v1.924h7.694v1.924H29.854v1.924h5.771v1.924H27.93V27.93h8.584a16.468,16.468,0,0,1,8.244,10.557,10.738,10.738,0,0,0-1.142,1.259c-2.42-1.384-6.375-2.2-10.877-2.2-5.076,0-10.827,2.068-14.439,3.942a43.163,43.163,0,0,0-5.35-2.76,16.266,16.266,0,0,1,8.677-11l.533-.265V16.389Zm1.914,27.018a11.258,11.258,0,0,0-6.249,3.272c-.115.115-.22.237-.33.355-3.765-.482-7.277-2.386-10.673-4.377a31.505,31.505,0,0,1,12.452-3.184c4.018,0,7.733.733,9.839,1.9a10.435,10.435,0,0,0-.923,2.555,7.344,7.344,0,0,0-4.116-.518ZM6.771,34.663c0-5.235,5.955-9.784,13.465-10.466v2.084a18.151,18.151,0,0,0-9.59,15.265c-2.475-1.939-3.875-4.376-3.875-6.883Zm-3.847,0c0-7.447,7.53-13.587,17.312-14.318v1.925c-8.564.72-15.389,6.134-15.389,12.394,0,3.523,2.136,6.871,5.851,9.27a18.185,18.185,0,0,0,.4,2.514C6.01,43.756,2.924,39.38,2.924,34.663Zm9.618,7.694a16.65,16.65,0,0,1,.094-1.674,53.7,53.7,0,0,1,5.708,3.063c3.545,2.093,7.2,4.243,11.262,5.029a10.555,10.555,0,0,0-1.588,4.153,6.77,6.77,0,0,0,1.611,5.744c-.245.01-.491.036-.737.036a16.369,16.369,0,0,1-16.35-16.35ZM40.523,55.912a9.328,9.328,0,0,1-5.161,2.729,4.5,4.5,0,0,1-5.44-5.441,9.905,9.905,0,0,1,7.889-7.889,4.977,4.977,0,0,1,3.98.954l.023.023a5.2,5.2,0,0,0-.713.585c-2.1,2.1-2.109,5.655-.278,8.707-.1.109-.2.227-.3.332Zm11.349,1.731C50.02,59.494,46.4,58.89,43.807,56.3s-3.2-6.213-1.347-8.066a3.86,3.86,0,0,1,2.717-1.065h.243a7.778,7.778,0,0,1,5.1,2.411c2.594,2.594,3.2,6.212,1.347,8.065Zm-1.821-12.4H43.506c-.031-.032-.054-.071-.085-.1-.011-.011-.022-.018-.033-.029a8.686,8.686,0,0,1,8.586-7.564h6.68a8.668,8.668,0,0,1-8.6,7.694Zm8.656-19.236a13.5,13.5,0,0,1-4.062,9.618H51.975a10.507,10.507,0,0,0-5.553,1.592,18.458,18.458,0,0,0-8.873-10.936V16.389a2.879,2.879,0,0,0,1.532-5.321L44.517,3.3a.92.92,0,0,1,1.45,0L56.273,18.024a13.4,13.4,0,0,1,2.434,7.722Z" transform="translate(-1 -1)" fill="#034ea2"/>
  <path id="Path_39820" data-name="Path 39820" d="M35.941,51.974l-.709-.652a7.5,7.5,0,0,0-2.183,4.07,3.116,3.116,0,0,0,.644,2.619,2.7,2.7,0,0,0,1.959.694c.1,0,.2,0,.3-.01l-.125-1.92c-.053,0-.111.006-.17.006a.956.956,0,0,1-.6-.131,1.449,1.449,0,0,1-.1-.985,5.553,5.553,0,0,1,1.64-2.984l-.655-.7.667.692Z" transform="translate(-2.223 -2.923)" fill="#034ea2"/>
  <path id="Path_39821" data-name="Path 39821" d="M39.48,49.049a6.342,6.342,0,0,0-1.927.621l.862,1.721a4.377,4.377,0,0,1,1.342-.439c.059-.009.135-.017.222-.023l-.141-1.918C39.694,49.022,39.57,49.036,39.48,49.049Z" transform="translate(-2.397 -2.834)" fill="#034ea2"/>
  <path id="Path_39822" data-name="Path 39822" d="M47.035,51v1.924a3.945,3.945,0,0,1,2.53,1.285,3.863,3.863,0,0,1,1.294,2.561h-.043v1.924a2.048,2.048,0,0,0,1.454-.5,2.549,2.549,0,0,0,.373-2.466,6.324,6.324,0,0,0-1.719-2.878A5.812,5.812,0,0,0,47.035,51Z" transform="translate(-2.759 -2.91)" fill="#034ea2"/>
  <path id="Path_39823" data-name="Path 39823" d="M0,0H1.924V2.349H0Z" transform="translate(48.471 13.995) rotate(-35.025)" fill="#034ea2"/>
  <path id="Path_39824" data-name="Path 39824" d="M55.763,18.426l-1.576,1.1.956,1.365a9.578,9.578,0,0,1,1.739,5.518v.261a9.539,9.539,0,0,1-2.976,6.95l1.33,1.39a11.444,11.444,0,0,0,3.569-8.34v-.261a11.486,11.486,0,0,0-2.086-6.619Z" transform="translate(-3.021 -1.666)" fill="#034ea2"/>
  <path id="Path_39825" data-name="Path 39825" d="M15.736,39.27l1.828.6a12.329,12.329,0,0,1,.673-1.651l-1.724-.853a14.54,14.54,0,0,0-.777,1.907Z" transform="translate(-1.563 -2.389)" fill="#034ea2"/>
  <path id="Path_39826" data-name="Path 39826" d="M17.627,35.453l1.585,1.09a12.652,12.652,0,0,1,1.113-1.4l-1.416-1.3A14.788,14.788,0,0,0,17.627,35.453Z" transform="translate(-1.635 -2.255)" fill="#034ea2"/>
  <path id="Path_39827" data-name="Path 39827" d="M20.519,32.329l1.218,1.49A12.409,12.409,0,0,1,23.2,32.791L22.2,31.143A14.353,14.353,0,0,0,20.519,32.329Z" transform="translate(-1.746 -2.152)" fill="#034ea2"/>
  <path id="Path_39828" data-name="Path 39828" d="M24.644,57.945a14.426,14.426,0,0,0,2.062.616l.409-1.88a12.314,12.314,0,0,1-1.785-.533Z" transform="translate(-1.903 -3.107)" fill="#034ea2"/>
  <path id="Path_39829" data-name="Path 39829" d="M17.055,45.858l-1.9.272a14.341,14.341,0,0,0,7.066,10.436l.964-1.664a12.6,12.6,0,0,1-6.127-9.045Z" transform="translate(-1.541 -2.714)" fill="#034ea2"/>
</svg>
