<svg id="Proud_product_" data-name="Proud product " xmlns="http://www.w3.org/2000/svg" width="61.611" height="61.61" viewBox="0 0 61.611 61.61">
  <path id="Path_39779" data-name="Path 39779" d="M34.578,31.943a.9.9,0,0,0,1.165-.522l.387-1.015h2.677l.382,1.013a.9.9,0,1,0,1.689-.637L38.458,24.37a1.047,1.047,0,0,0-.98-.675h0a1.046,1.046,0,0,0-.971.653c-.008.02-2.441,6.409-2.45,6.431a.9.9,0,0,0,.522,1.165Zm2.9-5.068.651,1.726H36.817ZM16.425,43.483a19.025,19.025,0,0,1-1.232-6.216c0-1.084.18-2.493-.85-2.947-.983-.434-1.73.47-2.452,1.345a5.629,5.629,0,0,1-2.665,2.164c-1.152.25-2.494-.527-3.677-1.532a6.076,6.076,0,0,0,3.563-2.163,5.423,5.423,0,0,0,.955-2.009,1.263,1.263,0,0,0-1.661-1.49,5.261,5.261,0,0,1-3.716.011,4.863,4.863,0,0,1-2.749-2.909,5.551,5.551,0,0,1,2.007-.9A22.351,22.351,0,0,1,6.315,26.6c1,.017,2.551.148,3.292-.883a2.077,2.077,0,0,0-.1-2.2,2.7,2.7,0,0,1-.367-1.731,2.2,2.2,0,0,1,.9-1.459c.053.045.137.138.2.2a2.4,2.4,0,0,0,1.632.853c1.482,0,2.625-1.768,4.8-5.125.343-.531.563-.9.74-1.2a6.332,6.332,0,0,1,.738-1.074,9.335,9.335,0,0,1,1.421-1.341A2.125,2.125,0,0,0,20.631,11c.015-1.215-1.149-1.873-2.175-2.454-.417-.236-1.393-.788-1.394-1.051a1.632,1.632,0,0,1,.281-.318,2.181,2.181,0,0,0,.823-1.636c-.02-1.362-1.408-2.059-2.421-2.568-.208-.1-.482-.242-.687-.363.849-.572,3.41-1.272,4.867-.348a3.369,3.369,0,0,1,.949,1.026,3.047,3.047,0,0,0,2,1.524,2.731,2.731,0,0,0,1.813-.324A3.659,3.659,0,0,1,25.95,4.1a4.661,4.661,0,0,1,2.622.429c-.148.136-.376.309-.544.437a3.761,3.761,0,0,0-1.9,2.8,2.93,2.93,0,0,0,.545,1.659,2.206,2.206,0,0,1,.181.326c-.057.149-.559.33-.829.427-.583.209-1.382.5-1.5,1.34-.161,1.184,1.121,1.8,2.607,2.522a14.113,14.113,0,0,1,1.888,1.026c.468.331.595.559.6.641a1.468,1.468,0,0,1-.315.516,2.165,2.165,0,0,0-.585,1.991,2.993,2.993,0,0,0,2.116,1.746c1.254.412,2.468.81,3.547,1.152a.9.9,0,1,0,.545-1.721c-1.07-.339-2.28-.735-3.529-1.146-.773-.254-.914-.455-.94-.515a2.327,2.327,0,0,1,.274-.4,2.594,2.594,0,0,0,.691-1.643c-.021-1.586-1.871-2.48-3.5-3.269-.349-.169-.8-.388-1.152-.586a2.611,2.611,0,0,0,1.809-1.539,2.072,2.072,0,0,0-.37-1.816,1.252,1.252,0,0,1-.274-.676c.009-.5.608-.953,1.187-1.393.692-.525,1.553-1.179,1.343-2.2-.152-.734-.825-1.3-1.947-1.648a7.049,7.049,0,0,0-2.773-.251,5.45,5.45,0,0,0-1.819.547c-.378.177-.5.226-.721.184-.324-.06-.472-.239-.845-.777A5.015,5.015,0,0,0,20.891.737,5.5,5.5,0,0,0,17.52.025a7.983,7.983,0,0,0-3.006.825c-1.177.617-1.446,1.291-1.465,1.749-.042,1.02.983,1.535,1.887,1.988.389.2,1.423.714,1.427.985a1.643,1.643,0,0,1-.28.316A2.2,2.2,0,0,0,15.257,7.5c0,1.309,1.282,2.033,2.31,2.614a5.7,5.7,0,0,1,1.225.825c-.086.08-.231.2-.354.294a11.053,11.053,0,0,0-1.669,1.58,8.1,8.1,0,0,0-.92,1.328c-.169.285-.378.639-.7,1.14a41.961,41.961,0,0,1-2.42,3.522c-.635.767-.879.773-.877.776-.047-.006-.193-.166-.28-.262a1.967,1.967,0,0,0-1.559-.8c-1,.034-2.267,1.067-2.638,2.914a4.427,4.427,0,0,0,.5,2.841c.062.134.139.3.184.424a4.9,4.9,0,0,1-1.483.1,2.948,2.948,0,0,0-.66.028,12.9,12.9,0,0,0-2.337.24A7.617,7.617,0,0,0,.329,26.695a.9.9,0,0,0-.312.875,6.743,6.743,0,0,0,4.01,4.754,6.852,6.852,0,0,0,3.915.313,3.53,3.53,0,0,1-.265.4c-1.359,1.781-4,1.662-4.11,1.655a.9.9,0,0,0-.707,1.518c2.54,2.71,4.748,3.816,6.75,3.38,1.724-.376,2.91-1.845,3.783-2.912,0,.2-.006.385-.006.59a20.792,20.792,0,0,0,1.317,6.762,62.383,62.383,0,0,0,2.535,5.79.9.9,0,1,0,1.636-.763c-1.282-2.745-2.145-4.616-2.451-5.575Zm7.248-12.415a.9.9,0,0,0,.9.838h0c.054,0,1.329-.005,1.839-.014,1.96-.034,3.383-1.735,3.383-4.044,0-2.427-1.387-4.058-3.451-4.058H24.559a.9.9,0,0,0-.9.9v0h0c0,.167.005,6.214.016,6.368ZM26.346,25.6c1.527,0,1.646,1.724,1.646,2.253,0,1.527-.808,2.225-1.609,2.239-.212,0-.569.007-.911.009,0-.738-.005-1.74-.005-2.255,0-.432,0-1.477,0-2.246ZM12.731,24.5V31a.9.9,0,1,0,1.8,0V24.5a.9.9,0,1,0-1.8,0Zm18.258,0V31a.9.9,0,1,0,1.8,0V24.5a.9.9,0,1,0-1.8,0Zm30.13-8.056a4.876,4.876,0,0,0-3.586-2.867c-1.908-.165-3.4,1.457-4.482,2.641a9.928,9.928,0,0,0-1.507,2.2c-.369.683-.536.968-.975,1.149a2.912,2.912,0,0,1-2.174-.142,4.306,4.306,0,0,1-1.851-1.658c-.462-.633-.985-1.35-1.916-1.266-1.1.1-1.4,1.166-1.641,2.023a4.038,4.038,0,0,1-1.07,2.108c-.245.206-.942.362-2.871-.069a.9.9,0,0,0-.394,1.762c2.825.631,3.823.2,4.427-.312a5.613,5.613,0,0,0,1.646-3c.041-.148.09-.323.139-.475.075.1.153.2.22.3a6.043,6.043,0,0,0,2.625,2.265,4.681,4.681,0,0,0,3.545.14,3.688,3.688,0,0,0,1.877-1.961,8.258,8.258,0,0,1,1.249-1.833c.879-.959,1.975-2.151,3-2.063A3.1,3.1,0,0,1,59.5,17.233a1.94,1.94,0,0,1,.267,1.368,2.388,2.388,0,0,1-.557.092,3.239,3.239,0,0,0-2.239.927,2.987,2.987,0,0,0-.708,2.2,5.234,5.234,0,0,1-.4,2.128,3.15,3.15,0,0,1-.522.888,3.544,3.544,0,0,0-.695,1.3,6.871,6.871,0,0,0-.157,3.231,4.478,4.478,0,0,1-1.382-.634c-.335-.216-1.118-.723-1.213-1.328-.091-.585.5-1.283.93-1.793.459-.542,1.087-1.285.5-2.031-.612-.782-1.678-.482-4.014.174-2.554.717-3.322,1.189-3.848,1.81a4.012,4.012,0,0,0-1.027,2.384,4.718,4.718,0,0,0,1.409,3.241c-.129-.006-.261-.01-.393-.006-2.285.062-3.466,1.932-4.833,4.1a20.535,20.535,0,0,1-4.38,5.352,7.166,7.166,0,0,1-2.693,1.433,4.574,4.574,0,0,0-2.66,1.784,6.857,6.857,0,0,0-1.2,4.419,18.9,18.9,0,0,1-.471,4.133,20.735,20.735,0,0,1-1.98,5.219c-.9,1.58-1.654,2.164-2.06,2.194A10.81,10.81,0,0,1,22.956,56.9a44.314,44.314,0,0,1-2.211-3.919.9.9,0,0,0-1.612.811,46.024,46.024,0,0,0,2.3,4.073c2.148,3.4,2.92,3.747,3.717,3.747,3.1,0,5.252-6.338,5.827-8.811a20.722,20.722,0,0,0,.517-4.492,5.158,5.158,0,0,1,.846-3.4A2.815,2.815,0,0,1,34.1,43.776a8.923,8.923,0,0,0,3.279-1.752,22.338,22.338,0,0,0,4.765-5.787c1.336-2.116,2.093-3.222,3.356-3.257.167,0,.37.01.567.025.649.048,1.537.114,1.973-.635.486-.835-.169-1.6-.7-2.212a3.363,3.363,0,0,1-1.106-2.133,2.271,2.271,0,0,1,.6-1.3c.158-.186.451-.533,2.957-1.237.323-.091.689-.193,1.04-.287a3.353,3.353,0,0,0-.731,2.477,4.021,4.021,0,0,0,2.016,2.566c.872.563,2.494,1.394,3.566.624a1.966,1.966,0,0,0,.555-2.036,4.77,4.77,0,0,1,.119-2.155,1.811,1.811,0,0,1,.389-.72,4.888,4.888,0,0,0,.774-1.314,7.028,7.028,0,0,0,.539-2.779c.016-.641.038-.811.222-1.008.252-.269.564-.311,1.095-.363a2.28,2.28,0,0,0,1.889-.894,3.236,3.236,0,0,0-.15-3.151ZM16.737,23.652a.9.9,0,0,0-.634.862V31a.9.9,0,1,0,1.8,0v-3.6l2.744,3.973a.987.987,0,0,0,1.115.408,1.02,1.02,0,0,0,.7-1.014L22.4,24.493a.9.9,0,0,0-.9-.894h-.009a.9.9,0,0,0-.894.911l.035,3.67L17.748,24A.9.9,0,0,0,16.737,23.652Z" transform="translate(0 -0.004)" fill="#034ea2"/>
</svg>
