<svg id="Group_39196" data-name="Group 39196" xmlns="http://www.w3.org/2000/svg" xmlns:xlink="http://www.w3.org/1999/xlink" width="123.454" height="45.646" viewBox="0 0 123.454 45.646">
  <defs>
    <clipPath id="clip-path">
      <rect id="SVGID" width="123.454" height="36.711" fill="none"/>
    </clipPath>
  </defs>
  <g id="Group_39186" data-name="Group 39186" transform="translate(0 0)" opacity="0.6">
    <g id="Group_39185" data-name="Group 39185">
      <g id="Group_39184" data-name="Group 39184" clip-path="url(#clip-path)">
        <path id="Path_39332" data-name="Path 39332" d="M514.825-1562.632v-.038a12.288,12.288,0,0,0-3.373-8.939,11.694,11.694,0,0,0-8.694-3.469,12.281,12.281,0,0,0-3.992.638,4.868,4.868,0,0,0-.063-1.038,4.858,4.858,0,0,0-2.711-5.191,4.824,4.824,0,0,0-1.3-.4,4.809,4.809,0,0,0-.845-2.016,4.823,4.823,0,0,0-3.16-1.951,4.917,4.917,0,0,0-.778-.062,4.825,4.825,0,0,0-2.044.453,4.851,4.851,0,0,0-3.13-1.144,4.846,4.846,0,0,0-1.482.233,4.823,4.823,0,0,0-2.833,2.4,4.813,4.813,0,0,0-.467,3.013,4.819,4.819,0,0,0,.162,2.306l.85,2.651a11.96,11.96,0,0,0-1.774.422,11.96,11.96,0,0,0-4.838,2.959,7.555,7.555,0,0,0-.353-1.164,11.333,11.333,0,0,0-.949-1.9,10.954,10.954,0,0,0-1.244-1.646,3.718,3.718,0,0,0-2.75-1.336,3.615,3.615,0,0,0-1.368.294,4.742,4.742,0,0,0-1.384.891l-1.557,1.42c.016-.254.031-.5.045-.717.043-.669.063-1.148.063-1.465,0-.221-.014-.441-.033-.66.022-.411.033-.728.033-.958a7.224,7.224,0,0,0-.268-1.958,4.924,4.924,0,0,0-1.276-2.172,5.714,5.714,0,0,0-2.182-1.327,8.452,8.452,0,0,0-2.807-.412H456.8a3.213,3.213,0,0,0-2.374.842,3.725,3.725,0,0,0-.916,2.63c-.1,1.713-.2,3.319-.3,4.79a6,6,0,0,0-1.057-.466,8.68,8.68,0,0,0-2.753-.38H448a3.189,3.189,0,0,0-2.523,1.121,3.514,3.514,0,0,0-.792,1.834l-.006.054c-.082.847-.157,1.844-.223,2.969-.064,1.088-.142,2.221-.231,3.368-.086,1.1-.216,2.2-.386,3.278a17.052,17.052,0,0,1-.626,2.67,4.279,4.279,0,0,1-.623,1.256c.014-.155.028-.32.047-.51.09-.933.183-1.953.276-3.034s.184-2.116.272-3.067c.1-1.076.147-1.9.147-2.53,0-.229-.012-.452-.029-.67q.029-.535.029-.948a7.472,7.472,0,0,0-.274-2.076,4.758,4.758,0,0,0-1.29-2.132,5.444,5.444,0,0,0-2.229-1.245,9.388,9.388,0,0,0-2.7-.338h-1.249a3.4,3.4,0,0,0-2.6,1.05,3.208,3.208,0,0,0-.493.7,6.912,6.912,0,0,0-2.95-1.7,12.786,12.786,0,0,0-3.539-.449,11.618,11.618,0,0,0-3.263.431v-.008c0-.207-.012-.413-.031-.617.021-.421.031-.753.031-1a6.612,6.612,0,0,0-.315-2.029,5.122,5.122,0,0,0-1.269-2.062,5.716,5.716,0,0,0-2.182-1.328,8.319,8.319,0,0,0-2.767-.412h-1.522a3.213,3.213,0,0,0-2.374.842,3.735,3.735,0,0,0-.917,2.636c-.107,1.895-.212,3.665-.313,5.283a9.726,9.726,0,0,0-2.445-1.166,13.263,13.263,0,0,0-4.06-.569,13.888,13.888,0,0,0-4.917.8,12.021,12.021,0,0,0-3.655,2.146,10.994,10.994,0,0,0-2.488,3.1,17.946,17.946,0,0,0-1.334,3.169,16.536,16.536,0,0,0-.664,3.168,25.051,25.051,0,0,0-.15,2.58q0,.429.018.843c-.01.267-.018.528-.018.775a14.188,14.188,0,0,0,1.051,5.745,10.855,10.855,0,0,0,2.772,3.875,9.954,9.954,0,0,0,3.811,2.069,13.742,13.742,0,0,0,3.739.542,10.827,10.827,0,0,0,3.137-.438,13.467,13.467,0,0,0,2.343-.937,9,9,0,0,0,1.794-1.193q.28-.246.48-.43a4.86,4.86,0,0,0,.665.87,5.355,5.355,0,0,0,2.214,1.357,8.658,8.658,0,0,0,2.754.381h1.4a3.381,3.381,0,0,0,2.325-.78,3.157,3.157,0,0,0,1.007-2.475s0-.217.09-1.262q.1-1.2.215-2.7t.234-2.961c.08-1,.143-1.733.192-2.245l0-.058a7.332,7.332,0,0,1,.948-3.505c.32-.489.569-.6.776-.63-.049.631-.1,1.333-.161,2.114-.064.837-.141,1.725-.23,2.64s-.174,1.818-.251,2.669c-.031.256-.054.52-.068.787s-.023.559-.023.882c0,.234.011.462.028.687,0,.017,0,.033,0,.05-.016.269-.023.558-.023.882a8.064,8.064,0,0,0,.262,2.114,4.809,4.809,0,0,0,1.242,2.172,5.255,5.255,0,0,0,2.249,1.284,9.547,9.547,0,0,0,2.741.339h1.249a5.168,5.168,0,0,0,1.029-.087,2.949,2.949,0,0,0,1.713-1,3,3,0,0,0,.506-.885,8.4,8.4,0,0,0,2.611,1.686,9.335,9.335,0,0,0,3.605.677,10.15,10.15,0,0,0,2.118-.23,8.78,8.78,0,0,0,2.232-.814,8.441,8.441,0,0,0,1.159-.739,6.24,6.24,0,0,0,1.793.974,8.126,8.126,0,0,0,2.767.418H451.4a3.065,3.065,0,0,0,2.595-1.106,5.663,5.663,0,0,0,1.5.731,8.876,8.876,0,0,0,2.756.375h1.4a3.275,3.275,0,0,0,2.413-.881,3.32,3.32,0,0,0,.911-2.169l.041-.5c.12.151.24.3.359.439a12.705,12.705,0,0,0,2.555,2.369,6.123,6.123,0,0,0,3.478,1.13,4.985,4.985,0,0,0,3-.941,7,7,0,0,0,1.657-1.692,7.947,7.947,0,0,0,.659-1.145,12.01,12.01,0,0,0,8.145,3.168,11.984,11.984,0,0,0,3.663-.575,11.914,11.914,0,0,0,6.241-4.651,11.757,11.757,0,0,0,1.578,1.957,11.761,11.761,0,0,0,8.661,3.4,13.162,13.162,0,0,0,5.808-1.22l.049-.024a4.951,4.951,0,0,0,2.772-4.526c0-.258.011-1.841-.07-2.4a3.368,3.368,0,0,0,3.258-3.284v-.039c0-.472,0-1.431,0-1.579m-.856-.016a2.509,2.509,0,0,1-2.5,2.449h-2.29a4.166,4.166,0,0,1,1.6,3.262,4.1,4.1,0,0,1-2.295,3.75l-.045.022a12.317,12.317,0,0,1-5.433,1.134,10.936,10.936,0,0,1-8.055-3.151,10.583,10.583,0,0,1-2.155-3.082l-.02.041a11.082,11.082,0,0,1-6.512,5.524,11.11,11.11,0,0,1-3.4.534h0a11.135,11.135,0,0,1-8.5-3.907c-.044.182-.105.39-.189.64a6.519,6.519,0,0,1-.826,1.614,6.136,6.136,0,0,1-1.454,1.485,4.149,4.149,0,0,1-2.494.778,5.282,5.282,0,0,1-3-.982,11.866,11.866,0,0,1-2.38-2.211,25.107,25.107,0,0,1-1.68-2.271q-.115,1.437-.229,2.809a2.5,2.5,0,0,1-.663,1.635,2.517,2.517,0,0,1-1.808.63h-1.4a8.042,8.042,0,0,1-2.492-.333,4.342,4.342,0,0,1-1.9-1.168c-.053-.057-.1-.116-.153-.177a2.235,2.235,0,0,1-.286.76,2.262,2.262,0,0,1-2.017.918h-1.522a7.3,7.3,0,0,1-2.479-.368,5.181,5.181,0,0,1-1.776-1.034c-.1-.087-.186-.178-.271-.271a7.963,7.963,0,0,1-1.591,1.117,7.9,7.9,0,0,1-2.014.735,9.272,9.272,0,0,1-1.939.211,8.488,8.488,0,0,1-3.276-.612,7.5,7.5,0,0,1-2.508-1.672,7.067,7.067,0,0,1-.982-1.269c-.01.15-.033.482-.033.482-.029.325-.06.579-.092.778a2.327,2.327,0,0,1-.487,1.121,2.1,2.1,0,0,1-1.225.711,4.353,4.353,0,0,1-.86.07H429.09a8.71,8.71,0,0,1-2.495-.3,4.419,4.419,0,0,1-1.89-1.069,3.972,3.972,0,0,1-1.021-1.792,7.205,7.205,0,0,1-.232-1.889c0-.306.007-.579.022-.836s.036-.505.065-.742q.116-1.281.252-2.678c.089-.92.167-1.815.231-2.658q.1-1.288.176-2.3c.06-.79.073-1.175.073-1.359a1.838,1.838,0,0,0-.225-.928,1.528,1.528,0,0,0-.538-.069,1.848,1.848,0,0,0-1.671,1.025,8.127,8.127,0,0,0-1.086,3.9l0,.048q-.078.81-.193,2.257-.118,1.463-.234,2.963t-.216,2.7c-.087,1.063-.092,1.3-.092,1.333a2.333,2.333,0,0,1-.721,1.836,2.622,2.622,0,0,1-1.756.563h-1.4a7.837,7.837,0,0,1-2.484-.337,4.515,4.515,0,0,1-1.866-1.138,4.152,4.152,0,0,1-1.023-1.867l-.018-.074a4,4,0,0,1-.429.647l-.049.058-.053.053c-.157.156-.4.383-.757.694a8.172,8.172,0,0,1-1.627,1.078,12.64,12.64,0,0,1-2.193.876,9.964,9.964,0,0,1-2.889.4,12.882,12.882,0,0,1-3.505-.51,9.107,9.107,0,0,1-3.485-1.893,10,10,0,0,1-2.549-3.574,13.35,13.35,0,0,1-.978-5.4,24.188,24.188,0,0,1,.145-2.491,15.648,15.648,0,0,1,.63-3,17.114,17.114,0,0,1,1.271-3.018,10.138,10.138,0,0,1,2.295-2.856,11.173,11.173,0,0,1,3.4-1.99,13.049,13.049,0,0,1,4.614-.749,12.4,12.4,0,0,1,3.8.527,8.307,8.307,0,0,1,2.831,1.515,6.975,6.975,0,0,1,.623.6c.136-2.077.278-4.42.424-7.006a2.936,2.936,0,0,1,.666-2.068,2.385,2.385,0,0,1,1.769-.591h1.522a7.486,7.486,0,0,1,2.484.363,4.868,4.868,0,0,1,1.86,1.125,4.27,4.27,0,0,1,1.058,1.719,5.747,5.747,0,0,1,.274,1.767c0,.509-.046,1.4-.14,2.73-.005.067-.01.135-.015.2a9.485,9.485,0,0,1,4.275-.882,11.924,11.924,0,0,1,3.3.415,6.041,6.041,0,0,1,2.73,1.627,6.129,6.129,0,0,1,.839,1.119c0-.027.011-.122.011-.122a3.148,3.148,0,0,1,.73-1.874,2.564,2.564,0,0,1,1.971-.776h1.249a8.558,8.558,0,0,1,2.455.3,4.6,4.6,0,0,1,1.883,1.044,3.905,3.905,0,0,1,1.06,1.752,6.621,6.621,0,0,1,.24,1.838c0,.6-.047,1.4-.143,2.451q-.137,1.48-.272,3.073-.138,1.611-.275,3.024c-.106,1.093-.129,1.622-.129,1.874a1.675,1.675,0,0,0,.269,1.046c.06.068.2.224.689.224a.643.643,0,0,0,.549-.277,4.889,4.889,0,0,0,.862-1.642,17.862,17.862,0,0,0,.659-2.806c.174-1.1.307-2.222.395-3.345.089-1.155.168-2.294.232-3.384.065-1.113.139-2.1.22-2.93l0-.039a2.659,2.659,0,0,1,.6-1.39,2.349,2.349,0,0,1,1.864-.813H449.4a7.855,7.855,0,0,1,2.482.337,4.53,4.53,0,0,1,1.866,1.137q.109.114.209.235c.125-1.9.26-4.063.4-6.472a2.926,2.926,0,0,1,.666-2.062,2.384,2.384,0,0,1,1.768-.591h1.522a7.624,7.624,0,0,1,2.524.363,4.867,4.867,0,0,1,1.859,1.124,4.08,4.08,0,0,1,1.058,1.8,6.38,6.38,0,0,1,.236,1.727c0,.3-.02.759-.062,1.41q-.059.915-.136,2.218c-.043.712-.1,1.5-.165,2.345l3.236-2.953a3.889,3.889,0,0,1,1.134-.736,2.8,2.8,0,0,1,1.05-.233,2.9,2.9,0,0,1,2.121,1.062,10.04,10.04,0,0,1,1.146,1.515,10.485,10.485,0,0,1,.878,1.758,5.111,5.111,0,0,1,.4,1.81c0,1.334-.042,1.313.444.688a11.207,11.207,0,0,1,5.408-3.787,11.117,11.117,0,0,1,3.158-.53l-1.68-5.238a3.97,3.97,0,0,1,.252-3.048,3.97,3.97,0,0,1,2.333-1.977,3.984,3.984,0,0,1,1.22-.192,3.982,3.982,0,0,1,2.989,1.344,3.971,3.971,0,0,1,2.185-.654,4.015,4.015,0,0,1,.642.052,3.969,3.969,0,0,1,2.6,1.607,3.966,3.966,0,0,1,.752,2.313h.027a3.954,3.954,0,0,1,1.7.381,4,4,0,0,1,1.91,5.318l-1.062,2.254a10.673,10.673,0,0,1,6.284-1.9,10.867,10.867,0,0,1,8.082,3.211,11.455,11.455,0,0,1,3.129,8.331Z" transform="translate(-391.372 1585.793)" fill="#191718"/>
      </g>
    </g>
  </g>
  <path id="Path_39333" data-name="Path 39333" d="M512.591-1569.26a10.866,10.866,0,0,0-8.082-3.211,10.672,10.672,0,0,0-6.284,1.9l1.063-2.254a4,4,0,0,0-1.91-5.318,3.954,3.954,0,0,0-1.7-.381h-.027a3.965,3.965,0,0,0-.751-2.313,3.969,3.969,0,0,0-2.6-1.607,4.013,4.013,0,0,0-.641-.052,3.976,3.976,0,0,0-2.185.653,3.982,3.982,0,0,0-2.989-1.344,3.984,3.984,0,0,0-1.22.192,3.971,3.971,0,0,0-2.333,1.977,3.97,3.97,0,0,0-.252,3.048l1.68,5.238a11.093,11.093,0,0,0-3.158.53,11.211,11.211,0,0,0-5.408,3.786c-.486.625-.444.646-.444-.688a5.117,5.117,0,0,0-.4-1.81,10.458,10.458,0,0,0-.878-1.758,10.043,10.043,0,0,0-1.145-1.515,2.9,2.9,0,0,0-2.121-1.062,2.8,2.8,0,0,0-1.05.233,3.9,3.9,0,0,0-1.134.736l-3.236,2.953c.067-.847.123-1.633.165-2.345q.078-1.3.136-2.218c.041-.652.061-1.113.061-1.41a6.369,6.369,0,0,0-.236-1.727,4.082,4.082,0,0,0-1.057-1.8,4.872,4.872,0,0,0-1.86-1.125,7.627,7.627,0,0,0-2.524-.364H458.55a2.385,2.385,0,0,0-1.768.591,2.927,2.927,0,0,0-.666,2.062c-.144,2.409-.279,4.575-.4,6.472q-.1-.121-.209-.235a4.528,4.528,0,0,0-1.866-1.137,7.862,7.862,0,0,0-2.482-.336h-1.405a2.349,2.349,0,0,0-1.865.813,2.655,2.655,0,0,0-.6,1.389l0,.04c-.081.831-.155,1.817-.22,2.93-.064,1.09-.143,2.229-.232,3.384-.088,1.123-.221,2.249-.394,3.345a17.941,17.941,0,0,1-.659,2.806,4.9,4.9,0,0,1-.862,1.643.644.644,0,0,1-.55.277c-.488,0-.628-.156-.689-.224a1.678,1.678,0,0,1-.269-1.046c0-.251.023-.781.129-1.874q.137-1.413.275-3.024.136-1.594.272-3.073c.1-1.05.143-1.851.143-2.451a6.633,6.633,0,0,0-.24-1.838,3.9,3.9,0,0,0-1.061-1.752,4.6,4.6,0,0,0-1.883-1.044,8.568,8.568,0,0,0-2.455-.3h-1.249a2.564,2.564,0,0,0-1.971.776,3.151,3.151,0,0,0-.73,1.874s-.008.094-.011.122a6.122,6.122,0,0,0-.839-1.119,6.041,6.041,0,0,0-2.73-1.627,11.922,11.922,0,0,0-3.3-.416,9.489,9.489,0,0,0-4.275.882c.005-.068.01-.136.015-.2.094-1.328.14-2.221.14-2.73a5.743,5.743,0,0,0-.274-1.767,4.27,4.27,0,0,0-1.059-1.719,4.867,4.867,0,0,0-1.86-1.125,7.494,7.494,0,0,0-2.485-.364h-1.522a2.386,2.386,0,0,0-1.769.591,2.936,2.936,0,0,0-.666,2.068c-.146,2.586-.288,4.929-.424,7.006a6.973,6.973,0,0,0-.623-.6,8.321,8.321,0,0,0-2.831-1.515,12.415,12.415,0,0,0-3.8-.527,13.037,13.037,0,0,0-4.614.749,11.154,11.154,0,0,0-3.4,1.99,10.128,10.128,0,0,0-2.295,2.856,17.1,17.1,0,0,0-1.271,3.018,15.709,15.709,0,0,0-.63,3,24.218,24.218,0,0,0-.145,2.491,13.35,13.35,0,0,0,.978,5.4,10,10,0,0,0,2.548,3.574,9.11,9.11,0,0,0,3.486,1.894,12.887,12.887,0,0,0,3.505.51,9.971,9.971,0,0,0,2.889-.4,12.613,12.613,0,0,0,2.193-.876,8.184,8.184,0,0,0,1.627-1.078c.353-.311.6-.537.757-.694l.053-.053.048-.058a3.991,3.991,0,0,0,.429-.647l.018.074a4.153,4.153,0,0,0,1.023,1.867,4.516,4.516,0,0,0,1.866,1.138,7.832,7.832,0,0,0,2.484.337h1.405a2.62,2.62,0,0,0,1.755-.563,2.332,2.332,0,0,0,.721-1.836c0-.036,0-.269.092-1.332q.1-1.193.215-2.7t.234-2.963q.115-1.448.193-2.258l0-.047a8.125,8.125,0,0,1,1.085-3.9,1.848,1.848,0,0,1,1.671-1.025,1.524,1.524,0,0,1,.538.069,1.838,1.838,0,0,1,.225.928c0,.184-.013.569-.073,1.358q-.079,1.016-.176,2.305c-.064.844-.142,1.738-.231,2.658s-.175,1.823-.252,2.677c-.029.237-.051.488-.065.742s-.022.53-.022.836a7.206,7.206,0,0,0,.232,1.889,3.967,3.967,0,0,0,1.021,1.791,4.416,4.416,0,0,0,1.89,1.069,8.717,8.717,0,0,0,2.495.3h1.249a4.371,4.371,0,0,0,.86-.07,2.1,2.1,0,0,0,1.225-.711,2.331,2.331,0,0,0,.488-1.122c.032-.2.063-.454.092-.778,0,0,.023-.332.033-.482a7.054,7.054,0,0,0,.983,1.269,7.485,7.485,0,0,0,2.508,1.672,8.486,8.486,0,0,0,3.276.612,9.275,9.275,0,0,0,1.939-.212,7.917,7.917,0,0,0,2.014-.735,7.954,7.954,0,0,0,1.59-1.117c.085.094.176.185.271.271a5.178,5.178,0,0,0,1.776,1.033,7.3,7.3,0,0,0,2.479.369h1.522a2.262,2.262,0,0,0,2.017-.918,2.231,2.231,0,0,0,.286-.76c.05.06.1.119.153.176a4.347,4.347,0,0,0,1.9,1.168,8.043,8.043,0,0,0,2.492.333H461.4a2.517,2.517,0,0,0,1.808-.63,2.5,2.5,0,0,0,.663-1.635q.114-1.373.229-2.81a25.086,25.086,0,0,0,1.68,2.271,11.87,11.87,0,0,0,2.38,2.211,5.282,5.282,0,0,0,3,.982,4.147,4.147,0,0,0,2.494-.778,6.15,6.15,0,0,0,1.455-1.484,6.528,6.528,0,0,0,.826-1.615c.083-.25.145-.458.189-.64a11.133,11.133,0,0,0,8.495,3.907h0a11.122,11.122,0,0,0,3.4-.534,11.083,11.083,0,0,0,6.512-5.523c.007-.014.013-.028.02-.041a10.589,10.589,0,0,0,2.154,3.082,10.936,10.936,0,0,0,8.055,3.151,12.321,12.321,0,0,0,5.433-1.134l.045-.022a4.1,4.1,0,0,0,2.295-3.75,4.168,4.168,0,0,0-1.6-3.262h2.29a2.509,2.509,0,0,0,2.5-2.448v-.031a11.454,11.454,0,0,0-3.128-8.331" transform="translate(-393.122 1584.043)" fill="#fff"/>
  <path id="Path_39334" data-name="Path 39334" d="M409.205-1551.528a5.63,5.63,0,0,0,1.971-.312,8.039,8.039,0,0,0,1.464-.7q.624-.391,1.054-.7a1.373,1.373,0,0,1,.781-.312q.9,0,.9,1.171a3.511,3.511,0,0,1-.117.761,8.908,8.908,0,0,1-.312,1.014q-.2.528-.41,1a3.255,3.255,0,0,1-.41.7q-.2.2-.683.624a6.678,6.678,0,0,1-1.308.859,10.98,10.98,0,0,1-1.913.761,8.324,8.324,0,0,1-2.419.332,11.184,11.184,0,0,1-3.064-.449,7.455,7.455,0,0,1-2.869-1.561,8.379,8.379,0,0,1-2.127-3.005,11.721,11.721,0,0,1-.839-4.743,22.474,22.474,0,0,1,.137-2.322,13.99,13.99,0,0,1,.566-2.693,15.4,15.4,0,0,1,1.151-2.732,8.5,8.5,0,0,1,1.932-2.4,9.526,9.526,0,0,1,2.908-1.7,11.4,11.4,0,0,1,4.04-.644,10.753,10.753,0,0,1,3.3.449,6.678,6.678,0,0,1,2.283,1.21,4.929,4.929,0,0,1,1.346,1.776,5.354,5.354,0,0,1,.449,2.186,3.627,3.627,0,0,1-1.327,3.1,6.142,6.142,0,0,1-3.747,1,2.194,2.194,0,0,1-.8-.1c-.143-.064-.215-.215-.215-.449q0-.936-.039-1.678a4.615,4.615,0,0,0-.215-1.249,1.64,1.64,0,0,0-.527-.781,1.63,1.63,0,0,0-1.015-.273,2.5,2.5,0,0,0-1.932.781,5.123,5.123,0,0,0-1.093,1.893,9.683,9.683,0,0,0-.469,2.282q-.1,1.172-.1,1.952a6.347,6.347,0,0,0,.878,3.864,3.369,3.369,0,0,0,2.791,1.093m21-.039q.117-1.288.254-2.693t.234-2.693q.1-1.288.176-2.3t.078-1.483a3.418,3.418,0,0,0-.488-1.815,2.039,2.039,0,0,0-1.893-.8,3.481,3.481,0,0,0-3.025,1.756,9.637,9.637,0,0,0-1.347,4.684q-.078.819-.195,2.283t-.234,2.967q-.117,1.5-.215,2.693t-.1,1.464a.833.833,0,0,1-.176.625,1.072,1.072,0,0,1-.683.156h-1.4a6.367,6.367,0,0,1-1.971-.254,2.917,2.917,0,0,1-1.21-.722,2.535,2.535,0,0,1-.624-1.151,6.365,6.365,0,0,1-.176-1.581q0-.859.137-2.4t.371-4.255q.234-2.712.547-6.928t.663-10.46a1.963,1.963,0,0,1,.2-1.015,1.02,1.02,0,0,1,.624-.117h1.522a5.982,5.982,0,0,1,1.952.274,3.244,3.244,0,0,1,1.248.741,2.652,2.652,0,0,1,.664,1.074,4.115,4.115,0,0,1,.2,1.268q0,.7-.136,2.615t-.332,4.488a6.923,6.923,0,0,1,2.6-2.693,7.787,7.787,0,0,1,3.611-.741,10.27,10.27,0,0,1,2.849.352,4.42,4.42,0,0,1,2.01,1.19,5.211,5.211,0,0,1,1.191,2.186,12.185,12.185,0,0,1,.39,3.336q0,.625-.117,2.147t-.293,3.473q-.176,1.953-.351,4.079t-.293,3.883c-.026.287-.053.508-.078.664a.747.747,0,0,1-.137.352.489.489,0,0,1-.293.156,2.89,2.89,0,0,1-.547.039h-1.249a7.209,7.209,0,0,1-2.029-.235,2.823,2.823,0,0,1-1.21-.663,2.367,2.367,0,0,1-.6-1.074,5.578,5.578,0,0,1-.176-1.464c0-.26.006-.507.02-.741s.032-.455.058-.664m15.709-13.31q0,.819-.136,2.3t-.273,3.083q-.137,1.6-.273,3.005t-.137,2.03a3.071,3.071,0,0,0,.683,2.127,2.411,2.411,0,0,0,1.893.761,2.253,2.253,0,0,0,1.776-.84,6.437,6.437,0,0,0,1.171-2.186,19.409,19.409,0,0,0,.722-3.063q.272-1.717.409-3.474t.234-3.415q.1-1.659.215-2.869a1.029,1.029,0,0,1,.234-.546.766.766,0,0,1,.624-.234h1.405a6.386,6.386,0,0,1,1.971.254,2.929,2.929,0,0,1,1.21.722,2.552,2.552,0,0,1,.625,1.152,6.386,6.386,0,0,1,.176,1.581q0,.585-.059,1.658t-.215,2.967q-.156,1.893-.371,4.8t-.527,7.2a3.256,3.256,0,0,1-.176.976q-.1.156-.644.156h-1.522A5.789,5.789,0,0,1,453-1547a3.587,3.587,0,0,1-1.23-.7,2.382,2.382,0,0,1-.663-1.015,4.719,4.719,0,0,1-.234-1.21,7.856,7.856,0,0,1-1.307,1.717,6.5,6.5,0,0,1-1.5,1.113,6.227,6.227,0,0,1-1.6.585,7.608,7.608,0,0,1-1.6.176,6.845,6.845,0,0,1-2.654-.488,5.868,5.868,0,0,1-1.971-1.308,5.594,5.594,0,0,1-1.23-1.952,6.753,6.753,0,0,1-.429-2.419q0-.507.059-1.659t.156-2.6q.1-1.444.215-3.064t.215-3.065q.1-1.442.2-2.536t.136-1.561a1.74,1.74,0,0,1,.312-.957,1.025,1.025,0,0,1,.781-.254h1.249a7.063,7.063,0,0,1,1.991.234,2.994,2.994,0,0,1,1.229.663,2.3,2.3,0,0,1,.625,1.034,4.986,4.986,0,0,1,.175,1.385m31.985,14.988a3.185,3.185,0,0,1-.2.781,4.895,4.895,0,0,1-.624,1.21,4.512,4.512,0,0,1-1.073,1.093,2.554,2.554,0,0,1-1.542.468,3.687,3.687,0,0,1-2.088-.7,10.211,10.211,0,0,1-2.049-1.912,25.089,25.089,0,0,1-2.049-2.868q-1.035-1.66-2.088-3.611-.156,2.069-.312,4.059t-.312,3.864a1.039,1.039,0,0,1-.2.625.984.984,0,0,1-.664.156H463.3a6.559,6.559,0,0,1-1.99-.254,2.756,2.756,0,0,1-1.21-.722,2.646,2.646,0,0,1-.605-1.19,7.079,7.079,0,0,1-.176-1.659q0-.468.039-.976t.117-1.444q.078-.937.215-2.459t.332-4.02q.195-2.5.449-6.148t.566-8.879a1.967,1.967,0,0,1,.2-1.015,1.021,1.021,0,0,1,.624-.117h1.522a6.124,6.124,0,0,1,1.991.274,3.249,3.249,0,0,1,1.249.741,2.474,2.474,0,0,1,.644,1.093,4.755,4.755,0,0,1,.176,1.288q0,.391-.059,1.308t-.136,2.225q-.078,1.308-.215,2.947t-.254,3.434l6.245-5.7a2.3,2.3,0,0,1,.644-.429,1.326,1.326,0,0,1,.449-.117,1.384,1.384,0,0,1,.937.546,8.42,8.42,0,0,1,.956,1.269,8.819,8.819,0,0,1,.741,1.483,3.632,3.632,0,0,1,.293,1.229q0,1.133-1.815,2.381a32.774,32.774,0,0,1-5.484,2.81q1.639,1.834,3.122,3.356t2.6,2.693q1.113,1.171,1.776,1.913t.664.976" transform="translate(-396.427 1578.956)" fill="#00408f"/>
  <path id="Path_39335" data-name="Path 39335" d="M718.21-1542.93a9.265,9.265,0,0,0-6.926-2.725,8.932,8.932,0,0,0-6.669,2.725,9.413,9.413,0,0,0-2.659,6.851,9.108,9.108,0,0,0,2.667,6.7,9.334,9.334,0,0,0,6.909,2.675,10.68,10.68,0,0,0,4.722-.969l.04-.02a2.542,2.542,0,0,0-.085-4.595.76.76,0,0,0-.3-.06.523.523,0,0,0-.3.129,6,6,0,0,1-4.1,1.538,5.274,5.274,0,0,1-3.488-1.135A4.652,4.652,0,0,1,706.54-1534a.672.672,0,0,1,.646-.87H720a.879.879,0,0,0,.878-.862,9.851,9.851,0,0,0-2.667-7.2m-2.893,4.5h-7.675a.676.676,0,0,1-.571-1.033,4.527,4.527,0,0,1,1.118-1.3,5.416,5.416,0,0,1,3.319-1.06,5.123,5.123,0,0,1,3.062.944,4.65,4.65,0,0,1,1.327,1.431.676.676,0,0,1-.58,1.021" transform="translate(-599.897 1558.845)" fill="#f58220"/>
  <path id="Path_39336" data-name="Path 39336" d="M687.959-1565.163l1.334-8.24a2.377,2.377,0,0,0-1.967-2.727,2.373,2.373,0,0,0-2.484,1.246Z" transform="translate(-588.407 1579.326)" fill="#f7941d"/>
  <path id="Path_39337" data-name="Path 39337" d="M655.125-1576.611a2.378,2.378,0,0,0-2.99-1.538,2.377,2.377,0,0,0-1.538,2.99l2.427,7.572a9.48,9.48,0,0,0-4.952.231,9.579,9.579,0,0,0-5.694,4.968,2.377,2.377,0,0,0,1.118,3.171,2.377,2.377,0,0,0,3.171-1.118,4.744,4.744,0,0,1,2.857-2.493,4.792,4.792,0,0,1,6.019,3.1,4.792,4.792,0,0,1-3.1,6.02,4.793,4.793,0,0,1-6.02-3.1,2.377,2.377,0,0,0-2.989-1.538,2.377,2.377,0,0,0-1.538,2.99,9.552,9.552,0,0,0,12,6.173,9.552,9.552,0,0,0,6.172-12c-.014-.045-.032-.088-.047-.133-.006-.023-.011-.046-.018-.068Z" transform="translate(-559.499 1580.737)" fill="#f58220"/>
  <path id="Path_39338" data-name="Path 39338" d="M699.251-1563.853a2.373,2.373,0,0,0-2.252.124l-1.316,8.067.945,2.947,3.76-7.974a2.377,2.377,0,0,0-1.137-3.164" transform="translate(-595.685 1571.214)" fill="#fdb913"/>
  <path id="Path_39339" data-name="Path 39339" d="M407.269-1464.417h-1.478V-1465h3.646v.582H407.96v4.045h-.69Z" transform="translate(-401.053 1504.692)" fill="#6d6f71"/>
  <path id="Path_39340" data-name="Path 39340" d="M424.242-1465.785v1.975a1.125,1.125,0,0,1,1.041-.561c.561,0,1.141.313,1.141,1.3v2.167h-.651v-2.06c0-.551-.227-.854-.7-.854-.592,0-.83.4-.83,1.071v1.843h-.654v-4.885Z" transform="translate(-413.002 1505.22)" fill="#6d6f71"/>
  <path id="Path_39341" data-name="Path 39341" d="M440.186-1459.581c0,.638.325,1.114.879,1.114a.734.734,0,0,0,.775-.493h.657a1.4,1.4,0,0,1-1.451,1.03,1.54,1.54,0,0,1-1.52-1.737c0-1.019.515-1.814,1.557-1.814a1.452,1.452,0,0,1,1.474,1.618,2.57,2.57,0,0,1-.01.282Zm1.709-.444c-.007-.526-.263-.952-.819-.952s-.815.395-.87.952Z" transform="translate(-423.702 1502.33)" fill="#6d6f71"/>
  <path id="Path_39342" data-name="Path 39342" d="M465.928-1458.99a.735.735,0,0,0,.795.557c.469,0,.651-.2.651-.486s-.153-.433-.769-.583c-1-.242-1.194-.548-1.194-1.012,0-.484.352-.967,1.253-.967s1.261.517,1.3.987h-.63a.628.628,0,0,0-.7-.493c-.443,0-.576.211-.576.42,0,.237.133.354.74.5,1.049.248,1.245.6,1.245,1.1,0,.588-.462,1.037-1.343,1.037-.908,0-1.337-.454-1.422-1.06Z" transform="translate(-440.993 1502.33)" fill="#6d6f71"/>
  <path id="Path_39343" data-name="Path 39343" d="M483.071-1458.776a5.6,5.6,0,0,0,.047.766h-.625a1.767,1.767,0,0,1-.054-.422,1.047,1.047,0,0,1-1.029.5,1.03,1.03,0,0,1-1.146-1.041c0-.76.6-1.108,1.6-1.108h.56v-.273c0-.287-.094-.628-.689-.628-.534,0-.628.259-.686.52h-.63c.046-.494.351-1.023,1.337-1.02.844,0,1.31.344,1.31,1.122Zm-.638-.866h-.516c-.655,0-.987.184-.987.633a.565.565,0,0,0,.626.579c.774,0,.877-.524.877-1.107Z" transform="translate(-451.054 1502.33)" fill="#6d6f71"/>
  <path id="Path_39344" data-name="Path 39344" d="M496.06-1461.037v-2.869h-.537v-.522h.537v-.385c0-.638.26-1.176,1.006-1.176a1.571,1.571,0,0,1,.387.044v.544a1.371,1.371,0,0,0-.278-.028c-.335,0-.461.188-.461.659v.342h.662v.522h-.662v2.869Z" transform="translate(-461.299 1505.356)" fill="#6d6f71"/>
  <path id="Path_39345" data-name="Path 39345" d="M507.728-1459.581c0,.638.325,1.114.88,1.114a.733.733,0,0,0,.774-.493h.657a1.4,1.4,0,0,1-1.451,1.03,1.54,1.54,0,0,1-1.52-1.737c0-1.019.515-1.814,1.557-1.814a1.452,1.452,0,0,1,1.474,1.618,2.57,2.57,0,0,1-.01.282Zm1.709-.444c-.007-.526-.263-.952-.819-.952s-.815.395-.87.952Z" transform="translate(-469.05 1502.33)" fill="#6d6f71"/>
  <path id="Path_39346" data-name="Path 39346" d="M523.333-1458.99a.734.734,0,0,0,.795.557c.469,0,.651-.2.651-.486s-.153-.433-.769-.583c-1-.242-1.194-.548-1.194-1.012,0-.484.353-.967,1.253-.967s1.261.517,1.3.987h-.63a.628.628,0,0,0-.7-.493c-.443,0-.576.211-.576.42,0,.237.133.354.74.5,1.048.248,1.245.6,1.245,1.1,0,.588-.462,1.037-1.343,1.037-.908,0-1.337-.454-1.422-1.06Z" transform="translate(-479.534 1502.33)" fill="#6d6f71"/>
  <path id="Path_39347" data-name="Path 39347" d="M537.091-1463.25h.574v-.985h.654v.985h.732v.522h-.732v1.926c0,.316.08.471.381.471a1.341,1.341,0,0,0,.28-.025v.481a1.684,1.684,0,0,1-.531.063c-.554,0-.784-.289-.784-.858v-2.058h-.574Z" transform="translate(-489.207 1504.179)" fill="#6d6f71"/>
  <path id="Path_39348" data-name="Path 39348" d="M559.952-1458.99a.735.735,0,0,0,.794.557c.469,0,.651-.2.651-.486s-.153-.433-.769-.583c-1-.242-1.193-.548-1.193-1.012,0-.484.353-.967,1.253-.967s1.261.517,1.3.987h-.63a.628.628,0,0,0-.7-.493c-.443,0-.576.211-.576.42,0,.237.133.354.74.5,1.048.248,1.245.6,1.245,1.1,0,.588-.462,1.037-1.343,1.037-.908,0-1.337-.454-1.422-1.06Z" transform="translate(-504.121 1502.33)" fill="#6d6f71"/>
  <path id="Path_39349" data-name="Path 39349" d="M575.611-1458.406v1.722h-.651v-3.891c0-.276,0-.56-.007-.825h.635a4.952,4.952,0,0,1,.023.511,1.149,1.149,0,0,1,1.084-.591c.78,0,1.353.653,1.353,1.688,0,1.208-.655,1.862-1.475,1.862a1.013,1.013,0,0,1-.962-.476m1.767-1.361c0-.7-.312-1.164-.866-1.164-.67,0-.93.424-.93,1.221,0,.771.218,1.236.886,1.236.6,0,.91-.486.91-1.293" transform="translate(-514.627 1502.33)" fill="#6d6f71"/>
  <path id="Path_39350" data-name="Path 39350" d="M591.682-1465.785h.654v.752h-.654Zm0,1.494h.654v3.391h-.654Z" transform="translate(-525.859 1505.22)" fill="#6d6f71"/>
  <path id="Path_39351" data-name="Path 39351" d="M603.941-1459.06a1.36,1.36,0,0,1-1.425,1.129c-.956,0-1.528-.683-1.528-1.756a1.616,1.616,0,0,1,1.571-1.795,1.28,1.28,0,0,1,1.383,1.147H603.3a.713.713,0,0,0-.75-.61c-.567,0-.887.487-.887,1.235s.316,1.245.869,1.245a.758.758,0,0,0,.765-.595Z" transform="translate(-532.107 1502.331)" fill="#6d6f71"/>
  <path id="Path_39352" data-name="Path 39352" d="M617.06-1459.581c0,.638.325,1.114.88,1.114a.734.734,0,0,0,.774-.493h.657a1.4,1.4,0,0,1-1.452,1.03,1.54,1.54,0,0,1-1.52-1.737c0-1.019.515-1.814,1.557-1.814a1.452,1.452,0,0,1,1.474,1.618,2.586,2.586,0,0,1-.01.282Zm1.709-.444c-.007-.526-.263-.952-.819-.952s-.815.395-.87.952Z" transform="translate(-542.455 1502.33)" fill="#6d6f71"/>
  <path id="Path_39353" data-name="Path 39353" d="M632.665-1458.99a.734.734,0,0,0,.795.557c.469,0,.651-.2.651-.486s-.154-.433-.769-.583c-1-.242-1.193-.548-1.193-1.012,0-.484.352-.967,1.253-.967s1.261.517,1.3.987h-.63a.628.628,0,0,0-.7-.493c-.443,0-.576.211-.576.42,0,.237.133.354.74.5,1.049.248,1.245.6,1.245,1.1,0,.588-.463,1.037-1.343,1.037-.908,0-1.337-.454-1.422-1.06Z" transform="translate(-552.939 1502.33)" fill="#6d6f71"/>
  <path id="Path_39354" data-name="Path 39354" d="M660.311-1459.713a1.611,1.611,0,0,1-1.614,1.782,1.59,1.59,0,0,1-1.58-1.769,1.609,1.609,0,0,1,1.619-1.781,1.582,1.582,0,0,1,1.575,1.769m-2.523.006c0,.726.354,1.239.932,1.239s.92-.49.92-1.235-.33-1.242-.933-1.242-.919.476-.919,1.238" transform="translate(-569.792 1502.331)" fill="#6d6f71"/>
  <path id="Path_39355" data-name="Path 39355" d="M673.36-1461.037v-2.869h-.537v-.522h.537v-.385c0-.638.26-1.176,1.005-1.176a1.573,1.573,0,0,1,.387.044v.544a1.376,1.376,0,0,0-.278-.028c-.336,0-.461.188-.461.659v.342h.662v.522h-.662v2.869Z" transform="translate(-580.337 1505.356)" fill="#6d6f71"/>
  <rect id="Rectangle_1804" data-name="Rectangle 1804" width="0.687" height="4.626" transform="translate(99.957 39.694)" fill="#6d6f71"/>
  <path id="Path_39356" data-name="Path 39356" d="M706-1460.548c0-.293,0-.594-.007-.854h.635a5.311,5.311,0,0,1,.025.533,1.059,1.059,0,0,1,1.051-.613c.644,0,1.131.4,1.131,1.295v2.176h-.654v-2.1c0-.487-.186-.819-.684-.819-.593,0-.845.435-.845,1.1v1.814H706Z" transform="translate(-602.606 1502.331)" fill="#6d6f71"/>
  <path id="Path_39357" data-name="Path 39357" d="M725.037-1465.785v3.932c0,.317,0,.629.007.953h-.629a4.479,4.479,0,0,1-.032-.457,1.052,1.052,0,0,1-1.046.536c-.869,0-1.406-.7-1.406-1.741s.578-1.81,1.52-1.81c.579,0,.845.229.933.412v-1.826Zm-2.43,3.2c0,.788.364,1.214.882,1.214.764,0,.919-.576.919-1.269,0-.72-.143-1.189-.877-1.189-.578,0-.924.456-.924,1.244" transform="translate(-613.307 1505.22)" fill="#6d6f71"/>
  <path id="Path_39358" data-name="Path 39358" d="M739.378-1465.785h.654v.752h-.654Zm0,1.494h.654v3.391h-.654Z" transform="translate(-625.022 1505.22)" fill="#6d6f71"/>
  <path id="Path_39359" data-name="Path 39359" d="M751.5-1458.776a5.653,5.653,0,0,0,.047.766h-.625a1.735,1.735,0,0,1-.054-.422,1.049,1.049,0,0,1-1.03.5,1.029,1.029,0,0,1-1.145-1.041c0-.76.6-1.108,1.6-1.108h.56v-.273c0-.287-.094-.628-.689-.628-.533,0-.628.259-.686.52h-.629c.046-.494.351-1.023,1.336-1.02.844,0,1.31.344,1.31,1.122Zm-.637-.866h-.517c-.655,0-.987.184-.987.633a.565.565,0,0,0,.627.579c.774,0,.877-.524.877-1.107Z" transform="translate(-631.274 1502.33)" fill="#6d6f71"/>
</svg>
